<svg width="32" height="32" viewBox="0 0 32 32" fill="none" xmlns="http://www.w3.org/2000/svg"><g id="Star" clip-path="url(#clip0_915_1167)"><path id="Star_2" d="M15.0767 3.01998C15.4183 2.19869 16.5817 2.19868 16.9233 3.01998L19.9975 10.4112C20.1415 10.7574 20.4671 10.994 20.8409 11.0239L28.8203 11.6636C29.707 11.7347 30.0665 12.8412 29.3909 13.4199L23.3115 18.6276C23.0267 18.8716 22.9023 19.2543 22.9893 19.6191L24.8467 27.4056C25.0531 28.2709 24.1118 28.9547 23.3527 28.4911L16.5213 24.3184C16.2012 24.123 15.7988 24.123 15.4787 24.3184L8.64726 28.4911C7.88816 28.9547 6.94691 28.2709 7.1533 27.4056L9.01067 19.6191C9.09768 19.2543 8.97331 18.8716 8.68852 18.6276L2.60905 13.4199C1.93352 12.8412 2.29304 11.7347 3.17969 11.6636L11.1591 11.0239C11.5329 10.994 11.8585 10.7574 12.0025 10.4112L15.0767 3.01998Z" fill="#FF492C"/></g><defs><clipPath id="clip0_915_1167"><rect width="32" height="32" fill="white"/></clipPath></defs></svg>