<svg width="1662" height="659" viewBox="0 0 1662 659" fill="none" xmlns="http://www.w3.org/2000/svg"><g opacity="0.5"><g clip-path="url(#clip0_5510_6833)"><path d="M1620.06 449.527C1607.73 448.248 1593.82 445.895 1591.57 444.098C1591.1 443.722 1590.65 443.355 1590.2 443.024C1583.14 437.577 1579.58 436.638 1575.28 439.912C1573.95 440.913 1572.56 442.318 1570.98 444.098C1560.81 444.098 1550.98 446.414 1543.85 443.516C1534.76 439.831 1524.7 437.693 1517.34 428.839C1508.59 418.329 1494.78 410.914 1482.32 403.213C1479.7 401.594 1473.41 404.501 1468.87 405.512C1464.74 406.433 1460.7 407.614 1456.61 408.678C1454.7 409.358 1452.79 410.046 1450.88 410.726C1450.12 411.361 1449.36 411.987 1448.61 412.622C1447.95 413.266 1447.29 413.91 1446.65 414.554C1445.86 415.95 1445.08 417.345 1444.3 418.731L1444.39 418.794C1439.23 423.168 1435.71 421.093 1432.82 416.504L1432.76 416.424C1431 415.18 1429.26 413.928 1427.5 412.676C1414.44 413.723 1402.73 412.676 1397.71 399.277C1397.12 397.712 1393.44 396.048 1391.25 396.12C1374.09 396.692 1367.92 384.626 1359.56 375.029C1347.35 366.192 1333.48 364.403 1318.56 367.9C1315.07 364.054 1311.85 360.503 1308.68 357.006C1322.21 339.922 1317.73 322.633 1297.05 311.291C1292.74 309.503 1288.22 308.027 1284.16 305.862C1275.16 301.059 1266.14 301.81 1257.36 305.71C1248.95 309.458 1244.8 315.853 1245.25 324.386C1245.41 327.284 1245.27 330.191 1245.27 333.858C1231.2 329.556 1223.18 335.45 1217.15 345.11C1215.53 347.695 1213.36 349.994 1211.45 352.427C1213.83 360.656 1216.33 368.866 1218.51 377.14C1219.12 379.492 1218.79 382.042 1218.89 384.501C1216.3 384.251 1213.5 384.439 1211.13 383.66C1200.52 380.19 1194.19 381.809 1189.48 391.63C1185.97 398.982 1181.37 400.717 1173.28 398.562C1163.84 396.031 1153.43 397.336 1146.57 387.578C1143.03 382.551 1132.92 381.406 1126.38 377.668C1123.11 375.798 1119.4 372.238 1118.99 369.117C1115.8 345.45 1109.35 338.912 1083.18 334.636C1081.37 334.341 1079.52 334.305 1076.92 334.073C1079.93 328.992 1082.65 324.413 1085.36 319.824C1085.64 312.884 1083.09 307.436 1075.34 304.637C1072.93 303.769 1070.19 303.116 1068.32 301.64C1061.77 296.444 1055.54 290.934 1046.87 283.591C1048.99 261.641 1028.24 250.04 1007.02 241.946C987.555 234.522 970.599 242.581 960.214 261.802C943.461 246.928 924.538 240.425 902.587 241.659C894.563 245.076 885.793 247.563 878.678 252.098C866.032 260.156 859.351 271.203 863.125 285.684C863.428 286.838 862.722 288.188 862.328 290.335C850.984 284.485 844.162 287.902 834.947 295.335C826.207 302.374 818.154 307.875 817.972 320.379C811.281 320.379 804.953 320.996 798.938 320.057C796.707 319.708 794.204 315.925 793.548 313.358C791.51 305.379 790.42 297.213 788.694 289.163C788.29 287.285 787.23 284.387 785.767 283.993C773.182 280.559 773.545 269.414 767.954 261.811C762.787 254.781 755.631 248.904 749.323 242.5C756.247 238.896 766.753 235.434 765.966 224.549C765.35 215.927 761.162 208.503 751.705 204.424C750.04 203.708 747.931 202.188 746.679 202.599C737.404 205.667 732.207 201.24 727.574 195.176C726.787 194.147 725.293 193.154 723.961 192.922C714.454 191.231 704.957 189.397 695.359 188.297C685.348 187.161 680.614 192.913 677.092 200.247C675.992 202.546 672.924 205.649 670.855 205.596C668.624 205.533 666.364 202.313 664.355 200.283C656.11 191.938 647.965 183.53 639.77 175.14C616.225 166.786 596.807 174.496 580.134 187.126C575.149 183.244 570.486 179.988 566.409 176.222C564.975 174.899 563.966 172.063 564.511 170.364C574.079 140.776 569.184 112.351 556.326 84.4888C556.054 83.8985 556.165 83.174 556.094 82.5121C552.219 72.7001 543.711 65.6967 537.272 57.4231C512.667 25.8316 479.786 7.61188 436.489 4.09674C432.573 3.78369 428.879 1.16298 426.215 0.0807142C415.285 2.88925 404.748 5.08957 394.676 8.39004C388.641 10.3578 386.461 8.15749 384.564 4.03413C383.847 2.70142 383.131 1.35976 382.404 0.027048C291.552 0.000214823 200.69 -0.0355627 109.828 0.0807142C105.872 0.0807142 101.926 1.45815 97.9696 2.20053C95.3254 4.02519 92.5702 7.53138 90.037 7.40616C65.7446 6.19867 45.3176 12.9427 29.0587 29.15C24.7795 33.4254 20.6013 37.7902 16.3826 42.1193V124.202C22.9225 131.295 31.2588 137.663 35.3866 145.722C38.4345 151.67 35.9922 159.827 35.9922 167.833C28.3018 166.428 22.3371 165.337 16.3826 164.237V188.262C32.6314 192.099 49.1325 195.256 65.0987 199.862C152.136 224.996 240.323 246.4 329.409 264.986C362.926 271.981 396.331 279.423 429.899 286.247C448.519 290.031 467.443 292.669 486.073 296.399C492.663 297.723 498.769 300.844 505.178 302.937C507.651 303.742 510.355 303.966 513.161 303.385C511.728 302.669 510.285 301.954 508.66 301.149C518.177 297.338 519.762 304.297 523.031 308.903C548.727 303.796 574.462 305.039 600.137 308.876C602.287 309.198 604.013 311.739 605.93 313.25C603.478 313.867 601.015 315.039 598.563 315.021C574.654 314.869 550.745 314.52 526.836 314.234C527.361 317.544 527.876 320.853 528.401 324.162C529.37 323.894 530.328 323.626 531.297 323.366C532.226 323.134 533.164 322.91 534.093 322.678C556.518 319.592 578.782 320.764 600.925 324.798C604.77 323.823 608.968 321.425 612.4 322.096C685.146 336.389 757.791 351.13 830.507 365.548C878.708 375.101 926.808 385.154 975.302 393.392C1019.19 400.852 1063.43 406.934 1107.72 412.193C1150.3 417.247 1193.15 420.708 1235.92 424.438C1270.53 427.452 1305.23 429.545 1339.84 432.55C1390.26 436.924 1440.6 442.014 1491.02 446.271C1521.94 448.892 1552.96 450.43 1583.92 452.648C1606.95 454.285 1629.95 456.119 1652.96 457.827C1646.02 455.636 1633.93 452.666 1620.06 449.527ZM572 258.448C572 258.448 571.929 258.377 571.889 258.341H572V258.448Z" fill="white"/><path style="mix-blend-mode:color-dodge" opacity="0.5" d="M1662 465.779C1645.31 465.296 1628.61 464.75 1611.93 464.115C1558.27 462.085 1504.65 459.178 1451.05 456.217C1397.49 453.266 1343.96 449.849 1290.43 446.468C1238.38 443.194 1186.2 440.949 1134.35 436.03C1048.97 427.935 963.585 419.384 878.607 408.508C798.857 398.302 719.652 384.743 640.174 372.82C605.9 367.677 571.455 363.357 537.242 357.91C473.458 347.758 409.805 336.917 346.051 326.622C269.742 314.297 193.363 302.311 117.034 290.066C86.0606 285.093 55.1577 279.816 24.2042 274.745C21.661 274.333 18.9966 274.467 16.3826 274.351V188.261C32.6314 192.099 49.1325 195.256 65.0987 199.862C152.136 224.996 240.323 246.4 329.409 264.986C362.926 271.981 396.331 279.423 429.899 286.247C448.519 290.031 467.443 292.669 486.073 296.399C492.663 297.723 498.769 300.844 505.178 302.937C507.651 303.742 510.355 303.966 513.161 303.385C511.728 302.669 510.285 301.953 508.66 301.148C518.177 297.338 519.762 304.297 523.032 308.903C524.293 310.683 525.565 312.454 526.836 314.234C527.361 317.544 527.876 320.853 528.401 324.162C530.349 330.817 535.354 332.767 542.742 332.329C548.656 331.971 554.641 332.642 560.595 332.865C560.151 337.972 561.12 341.622 568.296 342.606C577.611 343.885 579.791 338.858 581.537 332.776C585.211 332.642 588.895 332.355 592.578 332.409C598.523 332.49 601.742 330.432 600.925 324.797C604.77 323.822 608.968 321.425 612.4 322.096C685.146 336.389 757.791 351.13 830.507 365.548C878.708 375.101 926.809 385.154 975.303 393.392C1019.19 400.851 1063.43 406.934 1107.72 412.193C1150.3 417.247 1193.15 420.708 1235.92 424.438C1270.53 427.452 1305.23 429.545 1339.84 432.55C1390.26 436.924 1440.6 442.014 1491.02 446.271C1521.94 448.892 1552.96 450.43 1583.93 452.648C1606.95 454.285 1629.95 456.119 1652.96 457.827C1656.19 458.856 1658.3 459.714 1658.94 460.341C1659.89 461.271 1660.88 463.212 1662 465.779Z" fill="url(#paint0_linear_5510_6833)"/><path style="mix-blend-mode:color-dodge" opacity="0.5" d="M903.371 241.983C895.348 245.4 886.577 247.886 879.462 252.421C866.816 260.48 860.135 271.526 863.91 286.007C864.213 287.161 863.506 288.512 863.112 290.658C851.769 284.809 844.946 288.225 835.732 295.658C826.992 302.697 818.938 308.198 818.756 320.702C812.065 320.702 805.737 321.32 799.722 320.38C797.492 320.032 794.989 316.248 794.333 313.681C792.294 305.703 791.204 297.536 789.478 289.487C789.075 287.608 788.015 284.71 786.551 284.317C773.966 280.882 774.33 269.737 768.738 262.135C763.571 255.104 756.416 249.228 750.108 242.824C757.031 239.219 767.537 235.758 766.75 224.872C766.135 216.25 761.946 208.826 752.49 204.747C750.824 204.032 748.715 202.511 747.464 202.923C738.189 205.991 732.991 201.563 728.359 195.499C727.571 194.47 726.078 193.478 724.746 193.245C715.238 191.555 705.742 189.721 696.144 188.621C686.132 187.485 681.399 193.236 677.876 200.57C676.776 202.869 673.708 205.973 671.639 205.919C669.409 205.857 667.148 202.637 665.14 200.606C656.894 192.261 648.75 183.853 640.555 175.464C642.634 171.662 644.713 167.87 646.802 164.077C645.873 164.292 644.945 164.507 644.016 164.721C642.18 159.507 638.294 154.024 639.111 149.158C639.858 144.766 647.155 137.092 649.123 137.647C665.271 142.226 670.63 132.101 677.321 123.282C677.695 122.781 678.553 122.558 679.178 122.209C693.328 117.906 707.104 118.121 720.103 125.563C726.118 108.658 738.37 102.263 754.225 108.13C771.806 114.642 784.957 128.3 770.141 152.271C778.387 155.473 786.773 158.747 795.17 162.011C794.847 162.745 794.535 163.478 794.212 164.22C795.291 164.068 796.684 164.238 797.401 163.711C820.856 146.323 852.314 145.867 875.607 163.898C893.178 177.494 895.973 206.671 878.059 216.787C873.235 219.515 867.26 220.677 861.8 222.511C859.671 223.227 857.481 223.817 855.19 225.767C871.974 230.158 890.836 228.879 903.371 241.983Z" fill="url(#paint1_linear_5510_6833)"/><path style="mix-blend-mode:color-dodge" opacity="0.5" d="M1218.89 384.501C1216.3 384.251 1213.5 384.439 1211.13 383.66C1200.52 380.19 1194.19 381.809 1189.48 391.63C1185.97 398.982 1181.37 400.717 1173.28 398.562C1163.84 396.03 1153.43 397.336 1146.57 387.578C1143.03 382.551 1132.92 381.406 1126.38 377.668C1123.11 375.798 1119.4 372.238 1118.99 369.117C1115.8 345.45 1109.35 338.912 1083.18 334.636C1081.37 334.341 1079.52 334.305 1076.92 334.073C1079.93 328.992 1082.65 324.413 1085.36 319.824H1127.27C1127.13 319.323 1126.95 317.472 1127.8 316.13C1129.97 312.696 1132.54 308.08 1136.07 307.088C1139.65 306.086 1146.82 307.705 1148.49 310.218C1153.17 317.275 1161.03 317.409 1167.9 320.263C1175.98 323.617 1183.69 328.161 1190.51 333.295C1198.11 339.028 1204.52 345.996 1211.45 352.427C1213.83 360.655 1216.33 368.866 1218.51 377.14C1219.12 379.492 1218.79 382.041 1218.89 384.501Z" fill="url(#paint2_linear_5510_6833)"/><path style="mix-blend-mode:color-dodge" opacity="0.5" d="M16.3827 320.576C16.3827 320.576 757.63 467.139 1470.49 490.001C1470.49 490.001 252.696 400.87 15 353.107L16.3827 320.576Z" fill="url(#paint3_linear_5510_6833)"/><path style="mix-blend-mode:color-dodge" opacity="0.5" d="M16.3827 320.576C16.3827 320.576 757.63 467.139 1470.49 490.001C1470.49 490.001 252.696 400.87 15 353.107L16.3827 320.576Z" fill="url(#paint4_linear_5510_6833)"/></g></g><g style="mix-blend-mode:color-dodge" opacity="0.9"><path d="M598.779 466.486L9.99999 464.183C13.4759 456.947 22.1946 453.593 33.1264 452.584C39.1815 452.033 62.502 449.19 63.2315 455.031C66.355 451.29 74.2317 448.761 79.508 451.34C87.1705 440.786 106.761 435.696 122.148 434.313C143.794 432.361 167.35 434.292 187.09 439.1C198.736 441.931 209.556 446.065 220.995 449.254C226.12 450.684 232.291 451.665 236.541 454.094C243.173 451.219 245.858 446.426 255.087 446.93C264.112 430.899 290.598 421.594 313.703 418.476C342.703 414.548 372.326 417.876 397.856 425.6C404.99 427.737 408.286 431.43 412.09 435.749C415.999 440.178 421.96 446.43 423.677 451.49C424.585 447.531 430.035 448.007 434.793 448.408C437.231 448.612 440.093 449.916 442.282 449.888C445.807 449.84 445.888 448.709 448.553 446.564C458.229 438.689 475.141 440.758 486.319 444.289C490.92 445.746 496.613 447.661 500.212 449.948C502.944 451.686 504.194 456.054 507.19 457.109C511.42 458.612 519.011 453.66 524.686 453.783C527.934 453.862 530.664 454.942 533.267 455.985C534.789 456.598 539.482 460.132 540.628 460.212C543.207 460.407 547.907 457.163 550.834 456.463C553.866 455.742 557.449 455.764 560.653 455.725C573.435 455.559 592.689 458.015 598.76 466.481L598.779 466.486Z" fill="white"/></g><g clip-path="url(#clip1_5510_6833)"><path d="M460.973 638.088C460.969 638.297 460.942 638.505 460.888 638.709C460.427 640.577 458.044 642.291 453.976 643.861C442.773 648.191 418.789 651.448 386.984 653.81C386.86 653.821 386.736 653.829 386.612 653.837C340.151 657.271 277.11 658.803 212.844 658.981C211.825 658.985 210.803 658.985 209.784 658.988C204.337 659 198.898 659.004 193.478 658.996C254.648 656.596 367.401 653.343 412.234 646.941C425.851 645.791 433.638 644.266 433.638 642.449C433.638 640.766 426.975 639.026 415.202 637.359C416.054 637.517 416.689 637.664 417.123 637.795C416.011 637.559 414.539 637.297 412.672 637.015C412.66 637.015 412.645 637.015 412.633 637.008C409.073 636.467 404.087 635.85 397.482 635.182C397.211 635.151 396.936 635.124 396.657 635.101C396.611 635.094 396.564 635.09 396.518 635.086C395.789 635.012 395.045 634.939 394.275 634.87C393.631 634.804 392.969 634.742 392.295 634.681C366.793 632.3 0 599.008 0 599.008V503C0 503 7.52327 502.657 8.55375 511.316C10.7929 511.745 12.5168 513.118 12.083 515.434C11.6529 517.749 16.8208 516.892 16.9913 518.864C17.1656 520.836 35.6716 513.89 38.6004 525.209C44.1944 527.354 43.0748 522.808 48.4984 526.154C53.922 529.496 53.0619 524.78 59.1751 527.011C65.2882 529.241 67.5274 525.637 72.5171 528.898C77.5106 532.155 79.7498 531.472 82.1594 537.129C84.5729 542.79 96.7101 544.249 97.4849 548.451C98.2597 552.65 124.773 539.232 135.365 554.923C145.952 570.617 143.113 579.366 143.113 579.366C143.113 579.366 150.861 577.564 154.735 580.909C158.609 584.251 161.189 586.312 169.456 587.338C177.719 588.369 180.818 590.684 180.818 590.684C180.818 590.684 179.528 590.943 188.307 590.684C197.089 590.426 206.902 594.543 206.902 594.543C206.902 594.543 246.676 583.479 260.363 590.943C274.053 598.402 272.759 604.835 273.278 605.862C273.794 606.892 279.992 602.52 284.381 603.805C288.774 605.09 293.679 602.774 298.328 602.774C302.976 602.774 312.08 607.471 313.049 609.914C314.017 612.36 317.57 613.259 318.217 616.281C318.86 619.306 322.606 620.206 324.221 619.368C325.833 618.535 336.293 613.001 342.429 615.509C348.562 618.017 352.823 620.398 352.823 620.398C352.823 620.398 459.133 629.131 460.95 637.841C460.965 637.922 460.973 638.003 460.973 638.084V638.088Z" fill="white"/><path d="M460.973 638.088C460.853 638.296 460.837 638.505 460.888 638.709C460.427 640.577 458.044 642.291 453.976 643.861C442.773 648.191 418.789 651.448 386.984 653.81C386.86 653.821 386.736 653.829 386.612 653.837C338.644 657.167 275.305 658.776 212.844 658.981C211.825 658.985 210.803 658.985 209.784 658.988C204.337 659 198.898 659.004 193.478 658.996C254.648 656.596 367.401 653.343 412.234 646.941C425.851 645.791 433.638 644.266 433.638 642.449C433.638 640.766 426.975 639.026 415.202 637.359C412.25 636.807 406.667 636.089 397.482 635.182C397.211 635.151 396.936 635.124 396.657 635.101C396.611 635.094 396.564 635.09 396.518 635.086C395.789 635.012 395.045 634.939 394.275 634.87C393.631 634.804 392.969 634.742 392.295 634.681C366.793 632.3 0 599.008 0 599.008V588.589C0 588.589 455.464 629.861 460.95 637.845C461.008 637.93 461.016 638.011 460.973 638.088Z" fill="#84C4FF" fill-opacity="0.34"/><path d="M417.123 637.791C416.011 637.556 414.539 637.293 412.672 637.011C413.54 637.123 414.384 637.239 415.202 637.355C416.054 637.513 416.689 637.66 417.123 637.791Z" fill="#A5CCE0"/></g><defs><linearGradient id="paint0_linear_5510_6833" x1="819.999" y1="266.142" x2="848.469" y2="438.676" gradientUnits="userSpaceOnUse"><stop stop-color="white"/><stop offset="1" stop-color="#C6DAE2"/></linearGradient><linearGradient id="paint1_linear_5510_6833" x1="768.102" y1="166.309" x2="834.964" y2="250.37" gradientUnits="userSpaceOnUse"><stop stop-color="white"/><stop offset="1" stop-color="#C6DAE2"/></linearGradient><linearGradient id="paint2_linear_5510_6833" x1="1146.25" y1="332.784" x2="1173.09" y2="374.813" gradientUnits="userSpaceOnUse"><stop stop-color="white"/><stop offset="1" stop-color="#C6DAE2"/></linearGradient><linearGradient id="paint3_linear_5510_6833" x1="725.768" y1="368.122" x2="737.935" y2="474.937" gradientUnits="userSpaceOnUse"><stop stop-color="white"/><stop offset="1" stop-color="#C6DAE2"/></linearGradient><linearGradient id="paint4_linear_5510_6833" x1="725.768" y1="368.122" x2="737.935" y2="474.937" gradientUnits="userSpaceOnUse"><stop stop-color="white"/><stop offset="1" stop-color="#C6DAE2"/></linearGradient><clipPath id="clip0_5510_6833"><rect width="1647" height="490" fill="white" transform="translate(15)"/></clipPath><clipPath id="clip1_5510_6833"><rect width="461" height="156" fill="white" transform="translate(0 503)"/></clipPath></defs></svg>