<?xml version="1.0" encoding="UTF-8"?><svg width="50px" height="50px" viewBox="0 0 50 50" version="1.1" xmlns="http://www.w3.org/2000/svg" xmlns:xlink="http://www.w3.org/1999/xlink"><title>g2_logo</title><g id="Page-1" stroke="none" stroke-width="1" fill="none" fill-rule="evenodd"><g id="g2_logo" transform="translate(0.008540, 0.008540)" fill-rule="nonzero"><path d="M49.07976,24.53986 C49.07976,38.09576 38.09576,49.07976 24.53986,49.07976 C10.98406,49.07976 0,38.09576 0,24.53986 C0,10.98406 10.98406,0 24.53986,0 C38.09576,0 49.07976,10.99386 49.07976,24.53986 Z" id="Vector" fill="#FF492C"/><path d="M35.16066,20.53496 L28.81956,20.53496 L28.81956,20.24046 C28.81956,19.16066 29.03556,18.26746 29.46746,17.57056 C29.89936,16.86376 30.64536,16.24536 31.72516,15.69566 L32.21596,15.45026 C33.08956,15.00856 33.31526,14.62576 33.31526,14.17416 C33.31526,13.63436 32.84416,13.24166 32.08836,13.24166 C31.18526,13.24166 30.50796,13.71286 30.03676,14.66496 L28.81956,13.44786 C29.08466,12.87846 29.51656,12.42696 30.08586,12.06376 C30.66496,11.70056 31.30306,11.52386 31.99996,11.52386 C32.87356,11.52386 33.62946,11.74966 34.24786,12.22086 C34.88586,12.69196 35.19996,13.33986 35.19996,14.15456 C35.19996,15.46006 34.46376,16.25516 33.08956,16.96196 L32.31406,17.35456 C31.48956,17.76686 31.08706,18.13986 30.96926,18.79746 L35.16066,18.79746 L35.16066,20.53496 Z M34.60116,22.53736 L27.66136,22.53736 L24.19626,28.54476 L31.13616,28.54476 L34.61106,34.55206 L38.07606,28.54476 L34.60116,22.53736 Z M24.79506,32.55946 C20.37786,32.55946 16.78526,28.96686 16.78526,24.54966 C16.78526,20.13246 20.37786,16.53986 24.79506,16.53986 L27.54356,10.79746 C26.65026,10.62086 25.73736,10.53246 24.79506,10.53246 C17.05026,10.53246 10.76806,16.81466 10.76806,24.54966 C10.76806,32.29446 17.04046,38.57666 24.79506,38.57666 C27.87726,38.57666 30.73376,37.57546 33.05026,35.88706 L30.00736,30.62576 C28.61346,31.82326 26.78766,32.55946 24.79506,32.55946 Z" id="Vector_2" fill="#FFFFFF"/></g></g></svg>