<svg width="736" height="702" viewBox="0 0 736 702" fill="none" xmlns="http://www.w3.org/2000/svg"><g style="mix-blend-mode:lighten"><circle cx="382" cy="410" r="181" fill="url(#paint0_radial_5510_6828)" fill-opacity="0.4"/></g><g clip-path="url(#clip0_5510_6828)"><path d="M138.559 111.053L106.954 139.666H72.5813L31 105.361L61.9145 103.135H131.546L138.559 111.053Z" fill="#19141C"/><path d="M128.545 83.2278L129.472 91.5968L118.805 96.5688L115.251 91.0103L120.583 81.4595L128.545 83.2278Z" fill="#FFD3AE"/><path d="M47.6913 82.5274V83.894L48.2833 99.7876L61.9145 104.175H111.991L129.472 91.5969L127.454 73.3849L125.324 54.1544C125.324 54.1544 124.732 47.1348 118.213 45.0871C111.695 43.0394 108.138 42.1628 108.138 42.1628L104.286 41.2861L85.6183 36.6064L82.062 37.7774L66.4916 42.1671C61.9798 43.4434 58.4343 46.9006 57.0958 51.3397L47.6913 82.5317V82.5274Z" fill="white"/><path d="M71.3124 62.7063H112.387L109.673 88.2495L69.3275 87.259L71.3124 62.7063Z" fill="#1972F5"/><path d="M108.138 42.1607L104.286 41.284L109.026 32.8012L110.519 28.6091L110.848 27.6788L112.879 21.9784L113.175 19.3463C113.175 19.3463 113.225 18.8693 113.192 18.1172C113.085 15.7516 112.134 10.6614 106.062 9.10792C98.0612 7.06025 93.9129 8.23127 92.1347 12.3266C91.5362 13.7039 91.0378 15.9106 90.6416 18.2333C89.8603 22.8078 89.4685 27.8313 89.4685 27.8313L85.6162 36.6064L82.0598 37.7774C82.0598 37.7774 81.3851 40.951 82.8325 44.174L82.8434 44.1998C84.1122 46.9995 86.9917 49.8336 93.3187 50.6479C94.457 50.8348 95.5496 50.8563 96.5899 50.7424L108.134 42.165L108.138 42.1607Z" fill="#D38F62"/><path d="M93.619 67.9016L86.5085 71.1203L85.3223 72.2892L92.3436 71.7026L94.5092 68.486L93.619 67.9016Z" fill="#8E6342"/><path d="M90.3608 36.0177C92.731 46.256 95.1012 49.4747 95.1012 49.4747L96.5942 50.7381C103.696 49.9861 108.397 43.1813 108.138 42.1607L104.286 41.2841L103.248 42.9922L96.2003 41.5097L90.3608 36.0199V36.0177Z" fill="#19141C"/><path d="M128.545 83.2279L129.472 91.597L118.899 96.7151L115.207 91.2295L120.583 81.4596L128.545 83.2279Z" fill="#D38F62"/><path d="M104.514 37.5345C104.514 37.5345 98.2941 35.6545 95.8978 33.6777C95.8978 33.6777 99.2691 37.0919 102.899 37.3777C104.419 37.5474 104.514 37.5367 104.514 37.5367V37.5345Z" fill="#19141C"/><path d="M103.472 25.715L96.6573 24.6986V25.5452L103.176 26.7291L103.472 25.715Z" fill="#23150B"/><path d="M106.28 26.5616L110.839 27.5499L111.033 26.5831L106.31 25.715L106.28 26.5616Z" fill="#23150B"/><path d="M86.3714 121.079L45.8152 91.5969L35.8405 92.7657L31.3461 101.395L31 106.339L61.9145 126.081L84.3843 139.667L94.2611 138.349V125.333L86.3714 121.079Z" fill="#525299"/><path d="M75.6066 130.541C76.8102 132.793 82.4472 143.128 84.2363 142.724C86.2452 142.269 94.2611 138.352 94.2611 138.352L94.3111 135.053C94.3111 135.053 93.4732 126.115 87.2006 121.884L85.3855 121.601L76.4816 126.28C75.6937 126.695 75.2214 127.527 75.2758 128.408L75.6088 130.543L75.6066 130.541Z" fill="#272749"/><path d="M71.1993 57.4353L65.8321 82.7229L69.8172 81.7968L71.726 57.4353H71.1993Z" fill="#19141C"/><path d="M118.172 85.7783L109.649 101.455L108.238 101.943L112.831 58.9308L103.877 85.2884L97.2733 104.304L111.991 104.564L129.472 91.5969L118.899 96.715L116.731 93.3265L118.172 85.7783Z" fill="#19141C"/><path d="M76.6252 130.171C76.3554 129.531 76.3336 128.803 76.6209 128.169C77.0583 127.202 78.1705 126.639 80.9782 130.524C85.4726 136.74 85.1766 141.372 84.0883 140.958C83.0001 140.543 81.8335 138.975 80.8454 137.683C80.0466 136.637 77.3935 132.004 76.6252 130.171Z" fill="#19141C"/><path d="M53.0258 129.787V129.792H53.0331C53.0331 129.792 53.0276 129.791 53.0258 129.787Z" fill="#FFD3AE"/><path d="M78.978 128.966L74.5576 130.55L76.2117 139.667L83.5202 136.985C83.5202 136.985 82.0141 131.867 78.9758 128.964L78.978 128.966Z" fill="#8E6342"/><path d="M66.287 80.5829L60.7544 76.4338L52.6798 78.5094L60.6064 77.9938L62.5087 79.7492L60.9525 79.2851C60.9525 79.2851 60.2604 79.3087 57.1263 80.8687C53.99 82.4286 50.8298 83.5502 48.9776 88.8402V89.3279C48.9776 89.3279 54.656 82.8927 57.2982 81.5519C59.9405 80.2112 61.1005 79.8201 61.1005 79.8201L65.8321 82.7208L66.287 80.5807V80.5829Z" fill="#D5E4FC"/><path d="M58.2928 78.8702C58.2428 78.8874 48.366 83.8766 48.366 83.8766L47.6913 82.5272L48.6794 81.3734L58.0295 78.7735L58.2928 78.8702Z" fill="#D5E4FC"/><path d="M89.4707 27.8269L91.436 27.2425H92.435L98.0656 18.4673L97.5563 14.9887L108.149 20.515L113.194 18.1171C113.088 15.7514 112.136 10.6613 106.064 9.1078C98.0634 7.06013 93.915 8.23115 92.1369 12.3265C90.3587 16.4218 89.4707 27.829 89.4707 27.829V27.8269Z" fill="#23150B"/><path d="M93.5364 26.1847C93.8884 23.8681 92.7523 21.7797 90.9989 21.5201C89.2455 21.2604 87.5388 22.9279 87.1869 25.2445C86.8349 27.5611 87.971 29.6495 89.7244 29.9091C91.4778 30.1687 93.1845 28.5013 93.5364 26.1847Z" fill="#D38F62"/><path d="M87.1985 121.884C93.4711 126.115 94.309 135.053 94.309 135.053L138.559 111.584L145.998 103.588L142.311 92.7657L129.472 91.5947L87.1985 121.882V121.884Z" fill="#525299"/><path d="M100.912 28.8196C101.381 28.8196 101.761 28.2472 101.761 27.5411C101.761 26.835 101.381 26.2627 100.912 26.2627C100.444 26.2627 100.064 26.835 100.064 27.5411C100.064 28.2472 100.444 28.8196 100.912 28.8196Z" fill="#19141C"/><path d="M108.872 30.4418C109.34 30.4418 109.721 29.8694 109.721 29.1633C109.721 28.4572 109.34 27.8849 108.872 27.8849C108.403 27.8849 108.023 28.4572 108.023 29.1633C108.023 29.8694 108.403 30.4418 108.872 30.4418Z" fill="#19141C"/><path d="M98.7555 51.7242L107.459 66.262L113.205 82.9914L125.295 71.1996L123.463 54.6635C123.463 54.6635 122.953 48.6258 117.347 46.8661C111.74 45.1042 108.682 44.35 108.682 44.35C108.904 45.2288 104.863 51.0796 98.7555 51.7263V51.7242Z" fill="#D5E4FC"/><path d="M90.3522 85.7783H123.891C125.167 85.7783 126.338 85.0886 126.943 83.9799L139.107 61.7026C140.352 59.4229 138.678 56.6554 136.056 56.6554H102.516C101.241 56.6554 100.07 57.3451 99.465 58.4539L87.3008 80.7311C86.0558 83.0108 87.7295 85.7783 90.3522 85.7783Z" fill="white"/><path d="M71.3908 91.2015C71.8174 91.7108 72.3115 92.2307 72.8774 92.7658C72.8774 92.7658 82.9522 87.7938 85.3224 85.7461L88.2845 86.3305L99.2474 81.6508V80.1875L100.434 79.6031V78.3826L101.62 77.8476V76.6766L102.508 76.0922L102.212 73.7523L103.1 73.1679L102.804 70.828L85.3224 72.2912L82.9522 79.0186L69.8173 81.7969C69.8173 81.7969 66.6614 85.6086 71.3908 91.2015Z" fill="#D38F62"/><path d="M134.806 72.2891L123.545 70.828L122.657 73.1679L119.695 72.8756L118.509 76.0922H119.101L118.805 78.1398L119.397 78.4321V79.0165H118.979L118.805 81.0642L130.658 83.6984L130.954 81.3585H131.546L132.732 79.0165L132.436 78.7243L133.028 78.4321L133.324 76.0922L133.916 75.8L134.806 72.2891Z" fill="#D38F62"/><path d="M60.1515 146.091C60.1515 146.091 75.735 141.607 76.0462 141.439C76.3574 141.271 78.7972 140.169 77.3129 133.448C77.289 133.339 75.0929 130.056 75.0929 130.056L57.0914 127.939L60.1537 146.091H60.1515Z" fill="#19141C"/><path d="M53.6417 128.216C52.7167 128.455 51.9114 128.764 51.2106 129.134C50.2225 129.656 49.7023 130.692 49.9091 131.691L52.4642 143.953C52.9191 146.14 55.3219 147.466 57.7095 146.843C60.6565 146.074 62.9374 145.281 62.9374 145.281C62.9374 145.281 66.0846 125.015 53.6417 128.214V128.216Z" fill="white"/><path d="M117.083 145.644C117.083 145.644 101.317 142.643 101.002 142.507C100.686 142.372 98.2179 141.508 99.7022 134.779C99.7262 134.669 101.94 131.248 101.94 131.248L120.137 127.555L117.083 145.642V145.644Z" fill="#19141C"/><path d="M123.624 127.52C124.56 127.671 125.376 127.903 126.083 128.204C127.084 128.627 127.613 129.596 127.404 130.597L124.849 142.86C124.394 145.047 121.97 146.564 119.554 146.166C116.572 145.677 114.265 145.103 114.265 145.103C114.265 145.103 111.035 125.499 123.624 127.52Z" fill="white"/><path d="M133.324 76.092L122.657 73.1677" stroke="black" stroke-width="3.83333" stroke-miterlimit="10"/><path d="M132.822 79.0162L119.119 75.9952" stroke="black" stroke-width="2.55556" stroke-miterlimit="10"/><path d="M131.028 81.3736L119.397 78.7093" stroke="black" stroke-width="2.55556" stroke-miterlimit="10"/><path d="M129.472 91.5969L127.167 84.5429L126.658 84.4182L127.483 82.9937L128.545 83.2279L129.472 91.5969Z" fill="black"/><path opacity="0.19" d="M86.8677 72.1601L88.2867 86.3305L99.2496 81.6508V80.1875L100.434 79.6031V78.3826L101.62 77.8476V76.6766L102.508 76.0922L102.212 73.7523L103.102 73.1679L102.806 70.828L86.8677 72.1601Z" fill="black"/><path d="M102.286 73.8015L88.5087 75.7267" stroke="black" stroke-width="2.55556" stroke-miterlimit="10"/><path d="M101.644 76.7025L88.2867 78.9263" stroke="black" stroke-width="2.55556" stroke-miterlimit="10"/><path d="M99.2626 80.1767L88.3607 82.9872" stroke="black" stroke-width="2.55556" stroke-miterlimit="10"/><path d="M71.3908 91.2015L72.8773 92.7657C72.8773 92.7657 82.9522 87.7937 85.3224 85.746L84.7804 84.4805L71.3908 91.2036V91.2015Z" fill="#19141C"/><path d="M101.189 34.4576L104.279 35.8779L104.534 35.042L105.126 29.1912L104.83 28.899L103.644 34.7498L101.189 34.4576Z" fill="#19141C"/><path d="M116.666 74.3795C119.291 72.6117 120.441 69.7657 119.237 68.0229C118.032 66.2802 114.928 66.3005 112.304 68.0684C109.68 69.8363 108.529 72.6822 109.734 74.425C110.938 76.1678 114.042 76.1474 116.666 74.3795Z" fill="#FF684A"/><path d="M94.6354 12.0062C97.9783 12.0062 100.688 9.33096 100.688 6.03083C100.688 2.7307 97.9783 0.0554199 94.6354 0.0554199C91.2926 0.0554199 88.5827 2.7307 88.5827 6.03083C88.5827 9.33096 91.2926 12.0062 94.6354 12.0062Z" fill="#23150B"/><path opacity="0.21" d="M93.2468 34.0513C94.8407 34.0513 96.1328 32.7757 96.1328 31.2022C96.1328 29.6287 94.8407 28.3531 93.2468 28.3531C91.6529 28.3531 90.3608 29.6287 90.3608 31.2022C90.3608 32.7757 91.6529 34.0513 93.2468 34.0513Z" fill="#FF7186"/><path d="M65.0747 131.774C65.0747 131.774 68.4069 137.561 66.6004 141.327" stroke="white" stroke-width="2.55556" stroke-miterlimit="10"/><path d="M67.4232 131.774C67.4232 131.774 70.7553 137.561 68.9489 141.327" stroke="white" stroke-width="2.55556" stroke-miterlimit="10"/><path d="M69.7128 131.774C69.7128 131.774 73.0449 137.561 71.2385 141.327" stroke="white" stroke-width="2.55556" stroke-miterlimit="10"/><path d="M72.2592 131.295C72.2592 131.295 75.5914 137.082 73.7849 140.848" stroke="white" stroke-width="2.55556" stroke-miterlimit="10"/><path d="M111.686 141.437C111.686 141.437 109.714 135.071 112.31 131.785" stroke="white" stroke-width="2.55556" stroke-miterlimit="10"/><path d="M109.392 140.93C109.392 140.93 107.42 134.563 110.017 131.278" stroke="white" stroke-width="2.55556" stroke-miterlimit="10"/><path d="M107.159 140.438C107.159 140.438 105.187 134.071 107.783 130.786" stroke="white" stroke-width="2.55556" stroke-miterlimit="10"/><path d="M104.567 140.356C104.567 140.356 102.595 133.99 105.191 130.704" stroke="white" stroke-width="2.55556" stroke-miterlimit="10"/></g><path d="M27.1461 345L35.804 349.522L25.4285 354.586V596.96L10 597V351.745L21.9833 345H27.1461Z" fill="white"/><path d="M132 596.689L25.4285 596.96V354.586L35.804 349.522C35.804 349.522 40.5075 490.052 40.9768 550.826C41.0567 561.079 48.2666 571.119 62.1273 579.304C83.3877 591.851 111.778 595.688 132 596.689Z" fill="url(#paint1_linear_5510_6828)"/><path d="M25.4285 364.216L33.2476 361.624V362.923L25.4285 365.773" fill="white"/><path d="M23.3214 375.812L35.3546 371.819V373.816L23.3214 378.204" fill="white"/><g style="mix-blend-mode:plus-darker" opacity="0.5" clip-path="url(#clip1_5510_6828)"><path d="M77.1413 420.034V357.178L92.3717 349.988H107.69V332H108.438V349.988H120.686V398.77H122.688V403.055H121.667V409.898H127.799V411.682C129.736 410.721 131.914 410.165 134.229 410.165C137.588 410.165 140.675 411.319 143.142 413.247V368.217L148.776 366.66L151.653 365.861L159.305 363.747V507.955H153.727V513.911H141.285L132.565 514.056V514.282H119.191L76.4984 514.992V513.919L77.3101 513.313C76.9645 513.507 76.6752 513.709 76.426 513.919L76.4019 508.584L76.3778 503.121L76.3537 497.424L76.3215 490.29L76.3055 485.908L76.2733 478.774L76.2412 473.198C76.2412 473.198 76.1688 473.23 76.1287 473.239L76.1045 467.783C76.1045 467.783 76.1769 467.751 76.2171 467.735L76.1849 460.666C76.1849 460.666 76.1528 460.682 76.1367 460.69L76.1126 455.235C76.1126 455.235 76.1528 455.219 76.1688 455.21L76.1367 449.198L76.1126 443.743L76.0885 438.796L76.0563 432.002L76.0322 426.813L76.0001 420.914C76.2331 420.631 76.635 420.333 77.1413 420.01V420.034Z" fill="url(#paint2_linear_5510_6828)"/><path d="M166.329 352.215H167.189V364.191L174.559 364.602V358.211H175.419V364.651L183.336 365.095V380.992L197.786 379.176H197.248V364.78H198.108V379.136L203.364 378.482L222.083 379.685V384.688V385.535V393.694L225.426 393.847H225.458L234.259 394.243V399.763L233.254 399.722V407.106L234.259 407.147V412.642L233.254 412.602V419.3L236.453 419.429V424.916L233.254 424.795V431.025L236.453 431.146V436.642L233.254 436.521V442.299L236.453 442.42V447.915L233.254 447.794V453.71L236.453 453.831V459.326L233.254 459.197V464.991L240.102 465.088V470.584L233.254 470.487V476.241L241.822 476.354V480.671V487.772L251 493.978V507.059H216.296V506.793H215.259H213.491V507.705V507.713H183.336V507.963H174.077H159.313V455.614V363.747L166.329 364.142V352.215Z" fill="url(#paint3_linear_5510_6828)"/><path d="M215.146 368.21H216.006V379.177H215.146V368.21Z" fill="#C4E3FF"/></g><path d="M-32.6765 491.843C-34.7767 493.698 -36.8768 495.547 -38.977 497.402C-41.3375 500.889 -44.4121 503.154 -50.6118 502.411C-52.9219 502.133 -55.5765 503.378 -58.0715 503.928C-57.7691 508.441 -61.0033 514.151 -50.6538 515.269C-44.5634 517.722 -39.565 522.145 -30.862 518.647C-28.073 517.523 -22.8226 519.36 -18.8155 520.164C-17.8159 520.363 -16.413 522.061 -16.7322 522.593C-17.3623 523.626 -19.0172 524.991 -20.3361 525.04C-24.7128 525.203 -29.1231 524.895 -33.5166 524.677C-42.3036 524.242 -51.0906 523.747 -59.8692 523.275C-64.8088 522.798 -69.7399 522.321 -74.6795 521.843C-77.6617 522.574 -80.6439 523.312 -83.6177 524.043C-85.4826 524.145 -87.3476 524.248 -89.2125 524.351L-92.3963 523.958C-96.5546 529.831 -104.77 528.151 -111.457 528.973C-113.65 529.245 -118.724 530.242 -117.917 526.006C-119.144 526.526 -120.37 527.04 -121.588 527.559C-121.723 528.659 -121.866 529.759 -122 530.858C-116.388 531.438 -110.785 532.019 -105.174 532.605C-94.4629 533.396 -83.7773 534.399 -73.0414 534.925C-58.962 535.614 -44.849 535.928 -30.7444 536.399C-29.4759 536.472 -28.2074 536.538 -26.9389 536.611C-16.8834 537.469 -6.82791 538.321 3.2276 539.179C4.09286 539.094 4.95812 539.009 5.82338 538.931C10.5949 539.306 15.3665 539.686 20.138 540.061C22.3473 539.916 24.5567 539.68 26.7745 539.644C37.586 539.463 47.8347 544.472 59.2763 540.907C62.6702 539.849 69.4158 540.49 71.768 542.29C78.0769 547.118 85.5114 546.623 93.2231 546.937C95.0124 547.009 96.6673 548.931 98.3811 550C103.531 549.481 108.689 548.961 113.838 548.448C118.837 547.547 123.717 543.082 128.9 548.206C132.202 546.907 135.377 544.822 138.847 544.52C142.728 544.182 146.886 545.469 150.918 546.043C156.925 544.049 162.931 542.055 169.173 539.988V542.804C170.231 542.883 171.29 542.967 172.34 543.046C173.449 542.502 174.549 541.487 175.658 541.487C187.369 541.463 199.087 541.596 210.806 541.686C211.1 541.378 211.487 541.281 211.974 541.39C212.789 541.094 213.595 540.798 214.41 540.502C215.468 541.167 216.519 541.837 216.426 541.777C220.408 540.182 223.903 538.78 227.389 537.384C230.312 536.605 233.16 535.535 236.184 535.106C246.761 533.614 257.404 532.339 268.023 530.985C262.839 530.52 257.673 529.976 252.481 529.614C246.492 529.197 239.923 527.668 234.605 528.889C222.433 531.68 210.756 533.843 198.331 530.073C196.769 529.602 194.282 529.36 193.014 529.928C182.773 534.496 171.995 530.212 161.486 530.792C148.138 531.529 134.378 529.662 120.962 528.164C107.823 526.695 94.962 523.849 81.4287 524.75C80.7566 524.792 79.9922 524.194 77.2788 523.052C83.3524 521.167 88.0399 519.704 92.7275 518.248C95.8609 516.792 98.9859 515.336 102.119 513.88C89.5773 508.121 75.2039 510.653 61.6957 509.306C60.9649 509.233 60.1416 509.946 59.2931 510.139C58.201 510.381 56.2605 510.816 56.0337 510.556C51.3546 505.215 42.4248 507.511 36.3595 504.786C31.2856 505.064 26.2032 505.342 21.1293 505.62C23.0614 502.514 26.9341 498.647 29.3618 499.07C38.2916 500.629 48.028 495.221 56.1597 500.84C61.5277 499.015 64.0815 495.698 65.4928 491.771C68.6514 485.565 80.1518 484.52 87.5611 489.759C92.8283 489.855 98.0871 489.952 103.354 490.049C105.295 490.194 107.235 490.333 109.176 490.478C111.385 490.732 113.595 490.985 115.812 491.239C112.637 489.71 109.705 487.735 106.227 486.756C100.473 485.142 93.7355 484.955 88.5524 482.774C79.2193 478.846 67.3241 479.003 58.5455 483.982C56.8486 484.943 53.6983 485.04 51.3378 484.822C47.5407 484.478 43.8444 483.547 40.1062 482.864C36.3511 482.75 32.5961 482.629 28.841 482.514H16.9794C16.7273 481.988 16.4753 481.457 16.2317 480.931C18.7183 479.735 21.2049 478.544 23.683 477.348L23.7586 475.003C21.4569 475.336 19.1719 475.886 16.8534 475.958C10.5613 476.157 4.26086 476.151 -2.03118 476.224C-11.045 480.574 -20.0588 484.925 -29.0727 489.275C-30.2572 490.133 -31.4416 490.985 -32.6345 491.843H-32.6765Z" fill="#215241"/><path d="M40.0643 482.864C43.8025 483.547 47.4988 484.477 51.2958 484.822C53.6564 485.033 56.8066 484.943 58.5035 483.982C67.2822 479.003 79.1774 478.852 88.5104 482.773C93.702 484.955 100.431 485.142 106.185 486.755C109.663 487.728 112.595 489.71 115.787 491.227C114.015 492.121 112.225 493.027 110.444 493.927C110.008 492.773 109.579 491.625 109.142 490.471C107.202 490.326 105.261 490.187 103.321 490.042C102.917 491.934 102.506 493.825 102.178 495.36C96.7598 494.55 91.9463 493.831 87.1327 493.112C82.0756 494.205 77.0856 496.133 72.7089 491.722C71.9025 490.912 67.9542 491.71 65.4592 491.77C64.0479 495.698 61.4942 499.015 56.1262 500.84C53.5892 500.949 50.5902 501.74 48.6076 501.039C42.1224 498.755 38.6109 500.483 36.3176 504.786C42.3828 507.511 51.3126 505.215 55.9918 510.556C56.2186 510.816 58.1591 510.381 59.2512 510.139C60.0997 509.952 60.9229 509.233 61.6538 509.305C75.1703 510.653 89.5353 508.121 102.077 513.879C105.816 514.048 109.554 514.187 113.292 514.399C118.207 514.671 123.121 514.997 128.027 515.305C127.934 516.284 127.834 517.269 127.741 518.248H92.6855C87.998 519.704 83.3105 521.16 77.2368 523.051C79.9502 524.193 80.7147 524.798 81.3867 524.749C94.9285 523.849 107.781 526.695 120.92 528.163C134.336 529.662 148.096 531.529 161.444 530.792C171.953 530.211 182.731 534.502 192.972 529.927C194.24 529.36 196.727 529.601 198.289 530.073C210.714 533.843 222.391 531.68 234.563 528.888C239.881 527.668 246.458 529.202 252.44 529.613C257.631 529.976 262.806 530.52 267.989 530.979C268.35 531.033 268.669 531.142 268.955 531.299C271.937 529.414 280.573 530.248 275.365 524.417C273.609 522.731 271.853 521.051 270.098 519.366C266.292 518.489 261.966 518.157 258.782 516.616C252.045 513.353 245.576 511.257 236.991 512.514C230.984 513.396 224.524 512.683 217.93 511.595C221.357 510.749 224.785 509.903 228.825 508.906C226.818 503.722 223.054 500.677 215.763 499.317C206.976 497.686 198.676 494.417 189.822 493.353C179.237 492.079 168.106 489.71 157.647 494.429C152.943 496.556 148.163 497.414 143.921 493.698C143.173 493.045 142.031 492.018 141.233 492.091C129.388 493.215 122.012 487.202 113.544 483.112C109.814 481.311 106.849 478.689 103.489 476.477C102.237 475.65 100.506 474.085 99.5824 474.284C90.6694 476.169 86.0407 471.082 79.9754 468.363C56.941 465.952 34.0914 466.816 11.393 470.356C6.89873 472.308 2.39602 474.26 -2.0983 476.211C4.20214 476.139 10.5026 476.145 16.7862 475.946C19.1048 475.873 21.3897 475.323 23.6915 474.991C27.2869 474.961 30.916 474.719 34.4779 474.973C37.5105 475.19 40.4507 475.994 43.4413 476.538C42.3072 478.64 41.1815 480.743 40.0474 482.846L40.0643 482.864Z" fill="#7FB328"/><path d="M65.4592 491.77C67.9541 491.716 71.9024 490.912 72.7089 491.722C77.0856 496.133 82.0755 494.199 87.1327 493.111C87.2671 491.994 87.3931 490.876 87.5275 489.758C80.1182 484.519 68.6178 485.571 65.4592 491.77Z" fill="#2A6036"/><path d="M40.0642 482.864C41.1983 480.762 42.3239 478.659 43.458 476.556C40.4758 476.012 37.5272 475.209 34.4946 474.991C30.9411 474.731 27.3121 474.979 23.7082 475.009C23.683 475.789 23.6578 476.568 23.6326 477.354C31.5964 478.574 32.4785 479.457 28.799 482.52C32.5541 482.635 36.3091 482.756 40.0642 482.87V482.864Z" fill="#347632"/><path d="M36.3175 504.785C38.6109 500.483 42.1223 498.761 48.6076 501.039C50.5985 501.74 53.5975 500.948 56.1261 500.839C47.9859 495.22 38.2496 500.628 29.3198 499.069C26.892 498.646 23.0194 502.513 21.0872 505.619C26.1612 505.341 31.2435 505.063 36.3175 504.785Z" fill="#7AB14E"/><path d="M92.6856 518.247H127.741C127.834 517.269 127.934 516.284 128.027 515.305C123.113 515.003 118.207 514.67 113.292 514.399C109.554 514.193 105.816 514.048 102.077 513.879C98.944 515.335 95.819 516.791 92.6856 518.247Z" fill="#2A6036"/><path d="M87.5275 489.759C87.3931 490.876 87.2671 491.994 87.1327 493.112C91.9462 493.831 96.7598 494.55 102.178 495.36C102.506 493.825 102.917 491.934 103.321 490.043C98.0534 489.952 92.7863 489.855 87.5275 489.759Z" fill="#7AB14E"/><path d="M28.7991 482.508C32.4786 479.444 31.6049 478.562 23.6328 477.342C21.1462 478.532 18.6596 479.728 16.1814 480.925C16.4335 481.45 16.6855 481.982 16.9291 482.508H28.7907H28.7991Z" fill="#7FB328"/><path d="M109.142 490.472C109.579 491.626 110.007 492.774 110.444 493.928C112.225 493.022 114.015 492.121 115.787 491.227C113.569 490.986 111.352 490.732 109.142 490.472Z" fill="#7AB14E"/><g clip-path="url(#clip2_5510_6828)"><path d="M124.043 430.727C115.319 432.78 106.591 434.832 97.8671 436.889C97.0646 436.977 96.2674 437.059 95.465 437.136C94.5803 438.504 93.6904 439.873 92.8057 441.241C92.2862 441.529 91.7616 441.822 91.2421 442.11C89.6681 442.501 88.0993 442.897 86.5253 443.288L86.3813 443.345C83.2951 444.152 80.2141 444.96 77.1279 445.767C76.9016 446.024 76.6804 446.287 76.4695 446.554C87.3072 447.521 98.1448 448.488 108.982 449.455C108.797 450.453 108.607 451.451 108.422 452.449C90.8254 454.239 73.2239 456.034 55.6275 457.824C55.3703 458.05 55.1595 458.318 55.0051 458.626C55.144 459.737 55.2829 460.848 55.4218 461.965C68.4146 464.665 81.4126 467.371 94.4054 470.071C95.2747 470.014 96.1491 469.963 97.0183 469.906C102.095 470.189 107.177 470.477 112.254 470.76C114.409 470.23 116.564 469.695 118.714 469.166C121.055 469.119 123.395 469.073 125.735 469.027C126.178 469.001 126.62 468.981 127.062 468.955C135.158 470.616 143.254 472.283 151.356 473.944C152.009 473.651 152.662 473.353 153.315 473.059L153.372 473.049C153.264 472.715 153.305 472.396 153.49 472.092C153.876 471.095 154.257 470.097 154.642 469.099C155.321 468.662 155.995 468.219 156.679 467.782C161.165 467.643 165.645 467.499 170.13 467.36C170.943 467.227 171.75 467.088 172.563 466.954C177.743 465.38 182.922 463.806 188.102 462.232C190.957 461.404 193.811 460.576 196.666 459.748C202.314 459.496 207.967 459.238 213.614 458.986C214.01 458.884 214.401 458.786 214.797 458.688C218.079 458.292 221.355 457.901 224.637 457.505C224.575 457.968 224.514 458.426 224.452 458.889C224.699 458.925 224.843 459.069 224.884 459.316C230.552 459.691 236.22 460.061 241.889 460.437C242.485 460.658 243.082 460.874 243.684 461.095C244.497 461.234 245.314 461.378 246.127 461.517C251.245 460.545 256.368 459.578 261.486 458.606C258.945 455.309 256.404 452.012 253.858 448.715C238.504 450.659 223.238 449.728 208.069 445.922C220.08 448.493 227.62 445.67 230.696 437.445C225.229 437.733 220.949 437.954 216.67 438.18C216.731 437.851 216.793 437.517 216.86 437.188H141.362C149.813 435.187 157.821 431.993 165.393 427.61C156.525 418.835 144.978 415.389 130.761 417.272C129.192 417.472 127.618 417.678 126.044 417.884C126.404 420.61 126.769 423.336 127.129 426.062C128.893 426.972 130.653 427.883 133.955 429.585H125.941C125.941 429.585 125.447 429.76 125.447 429.755C124.979 430.074 124.501 430.393 124.028 430.712L124.043 430.727ZM136.912 453.231C137 452.866 137.082 452.5 137.17 452.135C138.337 452.351 139.505 452.567 140.667 452.788C140.575 453.21 140.482 453.632 140.389 454.049L136.912 453.231ZM151.469 451.225C151.268 451.857 151.068 452.495 150.867 453.128C148.069 453.154 147.102 452.223 147.961 450.335C149.175 450.643 150.322 450.937 151.464 451.225H151.469Z" fill="#1B3833"/><path d="M130.766 417.287C144.988 415.404 156.53 418.845 165.398 427.626C157.826 432.008 149.818 435.197 141.367 437.203H216.865C216.803 437.532 216.742 437.867 216.675 438.196C220.954 437.969 225.234 437.748 230.701 437.46C227.625 445.68 220.085 448.504 208.075 445.937C223.243 449.743 238.509 450.674 253.863 448.73C244.862 442.3 235.86 435.866 226.864 429.436C226.298 429.174 225.727 428.906 225.162 428.644C225.162 428.644 224.647 428.449 224.652 428.449C221.201 427.826 217.745 427.199 214.288 426.576L214.432 426.875C211.51 427.286 208.594 427.698 205.672 428.109C205.636 427.338 205.6 426.566 205.57 425.794H214.144C214.18 424.2 214.211 422.605 214.247 421.011C206.3 414.792 198.353 408.574 190.406 402.35C189.305 402.242 188.205 402.129 187.104 402.021C184.748 402.149 182.392 402.273 180.031 402.401C179.404 402.267 178.771 402.139 178.144 402.005C170.356 403.343 162.569 404.675 154.781 406.012C154.365 406.105 153.953 406.202 153.537 406.295C150.888 408.08 148.239 409.859 145.59 411.644L145.188 411.902L144.71 411.891C143.182 412.246 141.66 412.601 140.132 412.956C137.648 413.64 135.164 414.329 132.679 415.013C132.041 415.775 131.409 416.531 130.771 417.292L130.766 417.287Z" fill="#7DB22A"/><path d="M214.288 426.571C217.745 427.194 221.201 427.821 224.652 428.444C222.07 427.338 219.488 426.232 216.906 425.126C216.032 425.609 215.162 426.088 214.293 426.571H214.288Z" fill="#2A6036"/><path d="M76.4695 446.559C69.5205 450.319 62.5714 454.079 55.6224 457.834C73.2239 456.039 90.8203 454.244 108.422 452.454C108.607 451.456 108.797 450.458 108.982 449.46C98.1448 448.493 87.3072 447.526 76.4695 446.559Z" fill="#7DB22A"/><path d="M136.912 453.231L140.389 454.048C140.482 453.627 140.575 453.205 140.667 452.788C139.5 452.572 138.332 452.356 137.17 452.135C137.082 452.5 137 452.865 136.912 453.231Z" fill="#7DB22A"/><path d="M151.469 451.225C150.327 450.931 149.18 450.643 147.966 450.335C147.107 452.228 148.074 453.159 150.872 453.128C151.073 452.495 151.273 451.857 151.474 451.225H151.469Z" fill="#7DB22A"/><path d="M214.432 426.869C214.334 426.504 214.237 426.139 214.139 425.784C211.284 425.789 208.424 425.789 205.57 425.789C205.606 426.561 205.642 427.332 205.672 428.104C208.594 427.692 211.51 427.281 214.432 426.869Z" fill="#2A6036"/><path d="M169.322 466.162C169.466 465.982 170.248 462.932 170.423 462.783C171.436 463.554 172.45 464.326 173.463 465.102C175.865 468.724 178.267 472.345 181.929 477.869C181.935 477.797 181.94 477.725 181.945 477.653C182.001 478.023 182.058 478.394 182.115 478.764C182.161 479.042 182.274 479.294 182.454 479.51C182.788 479.875 183.123 480.235 183.457 480.6C183.493 480.636 183.524 480.677 183.56 480.713C183.56 480.775 183.565 480.837 183.565 480.899C183.663 483.702 183.755 486.51 183.853 489.314C183.935 490.152 184.023 490.99 184.105 491.829C184.105 492.23 184.11 492.636 184.11 493.038C183.838 493.485 183.57 493.927 183.298 494.375C178.612 486.263 173.926 478.152 169.24 470.04C166.895 466.568 157.857 454.717 155.517 451.246C158.094 452.459 166.74 464.948 169.317 466.162H169.322ZM181.971 477.277C181.96 477.401 181.95 477.524 181.945 477.653C181.914 477.452 181.883 477.252 181.852 477.056C181.893 477.128 181.929 477.2 181.971 477.277Z" fill="#B15341"/><path d="M177.65 472.684C177.84 473.049 178.031 473.414 178.221 473.785C178.586 473.893 178.823 474.124 178.936 474.474C179.003 474.988 179.07 475.492 179.136 476.007C179.172 476.043 179.203 476.084 179.239 476.12C179.239 476.182 179.244 476.243 179.244 476.305C179.589 476.753 179.929 477.2 180.273 477.648C180.51 478.568 180.752 479.489 180.993 480.415C181.22 483.594 181.451 486.772 181.677 489.951C181.677 493.742 181.677 497.538 181.688 501.334C181.647 502.286 181.605 503.242 181.564 504.199C182.578 498.428 183.586 492.652 184.481 487.549C185.35 494.632 186.312 502.486 187.449 511.776C188.457 507.527 189.12 504.708 190.149 500.362C192.129 509.554 193.791 517.274 195.457 524.99C195.483 525.267 195.632 525.437 195.905 525.488C196.177 525.386 196.409 525.442 196.609 525.653C197.155 524.316 197.7 522.978 198.245 521.646C197.762 519.213 197.278 516.785 195.9 509.857C198.955 516.41 200.035 518.719 201.11 521.029C211.192 522.094 221.278 523.158 231.36 524.223C222.384 522.737 213.408 521.255 204.438 519.769C203.368 517.485 202.298 515.196 201.228 512.912L201.305 512.953C201.043 512.599 200.786 512.244 200.529 511.894C200.061 511.266 199.598 510.644 199.13 510.022C195.802 501.334 192.474 492.652 189.146 483.964C188.025 480.986 186.903 478.008 185.787 475.029C185.479 474.911 185.216 474.726 185.005 474.484C184.496 466.928 183.982 459.372 183.473 451.811C184.589 450.664 185.705 449.512 186.821 448.36L186.888 448.329C187.186 447.897 187.479 447.465 187.778 447.028C188.169 446.338 188.565 445.644 188.956 444.949C185.592 448.169 182.228 451.389 178.864 454.614C178.529 459.604 178.19 464.583 177.65 472.684Z" fill="#B15341"/><path d="M174.528 526.666C175.901 526.512 177.274 526.363 178.648 526.209C178.797 525.972 178.926 525.72 179.028 525.458C180.623 519.774 182.212 514.09 183.807 508.412C183.354 512.676 182.896 516.935 182.444 521.199C182.084 521.759 181.713 522.31 181.343 522.865L181.328 522.881V526.687L181.096 526.98C185.88 526.317 190.668 525.653 195.457 524.99C193.791 517.274 192.129 509.554 190.149 500.362C189.12 504.708 188.457 507.527 187.449 511.776C186.312 502.486 185.35 494.632 184.481 487.549C183.586 492.652 182.578 498.428 181.564 504.194C179.219 511.683 176.873 519.172 174.528 526.666Z" fill="#B15341"/></g><path d="M-37.1853 98.867L-22.1085 96.2658L-18.2299 94.8961C-18.2299 94.8961 -10.923 80.7217 -9.83446 80.0808C-8.74593 79.44 4.30388 82.8202 4.30388 82.8202L6.48093 89.7567L8.80813 85.4842L16.2652 86.9293L20.9321 91.9934L32.5805 93.6898L38.6363 108.04L41.3763 101.858L46.5687 102.863C46.5687 102.863 48.8959 80.973 60.8572 84.9941C72.8185 89.0153 73.2814 100.727 73.2814 100.727L78.0985 98.9173L83.8414 101.632L84.6171 112.551L92.387 100.45L103.11 103.755L104.048 114.901L114.771 110.465L120.826 120.996L127.045 127.568L129.847 129.553C129.847 129.553 141.033 137.558 141.496 137.558C141.959 137.558 146 142.32 146 142.32L-50.698 107.487L-43.5538 103.579L-40.601 99.0555L-37.1853 98.867Z" fill="#55A549"/><path d="M145.999 146.296L145.562 180.573V180.685L-46.1603 156.859V98.4187L-44.6727 98.9312C-44.6727 98.9312 -39.9225 99.8062 -31.9096 101.319C-31.8846 101.319 -31.8596 101.331 -31.8471 101.331C6.91737 108.644 121.511 130.808 142.774 141.108C144.049 141.733 145.024 142.783 145.549 144.046C145.849 144.746 146.012 145.509 145.999 146.296Z" fill="white"/><path d="M145.562 144.296C145.024 155.584 61.5076 154.234 -40.9725 141.284C-42.7101 141.059 -44.4352 140.846 -46.1603 140.621V99.5191C-43.7852 99.8066 -41.41 100.107 -39.0099 100.407C-36.6348 100.707 -34.2597 101.007 -31.9096 101.319C-31.8846 101.319 -31.8596 101.332 -31.8471 101.332C66.5579 114.182 144.899 132.983 145.549 144.046C145.562 144.134 145.562 144.209 145.562 144.296Z" fill="white"/><path d="M145.562 180.686C145.449 183.073 141.599 185.048 134.624 186.573C142.549 182.986 145.562 180.686 145.562 180.686Z" fill="#7DBEEA"/><path d="M145.562 180.573V180.685C145.562 180.685 142.549 182.985 134.624 186.573C124.586 191.111 106.66 197.724 76.9709 204.361C23.8432 216.237 -14.6087 272.54 -21.2215 325.643C-24.6092 352.919 -35.9348 356.507 -46.1603 353.544V143.333C-43.8977 143.521 -41.6226 143.721 -39.3474 143.921C62.9827 152.921 145.562 169.297 145.562 180.573Z" fill="#163A65"/><path d="M61.2836 116.029V129.415L73.9424 142.477V157.9" stroke="#F88E5C" stroke-miterlimit="10"/><g clip-path="url(#clip3_5510_6828)"><path d="M0.250427 445.636C0.250427 445.636 80.8691 432.67 66.1899 380.715C55.5678 343.109 9.74678 341.412 15.5984 318.887L18.8363 318.363C18.8363 318.363 9.50157 328.614 42.8168 346.733C42.8168 346.733 33.9614 339.787 37.0599 313.605H39.5065C39.5065 313.605 34.6747 338.419 49.7217 349.776C64.7688 361.133 66.6246 372.016 66.6246 372.016C66.6246 372.016 68.2017 368.85 64.674 363.082C61.1463 357.314 43.6806 348.564 65.1366 314.968L67.0871 315.247C67.0871 315.247 53.1547 334.136 57.8917 350.05C59.937 354.053 70.5535 361.278 71.579 368.258C72.6044 375.237 75.5748 395.433 73.4348 405.763C73.4348 405.763 92.0095 399.621 94.3334 383.054C96.6574 366.488 89.5016 367.046 88.5765 355.79C87.6514 344.533 88.9499 326.476 90.2484 323.868L94.4616 325.297C94.4616 325.297 90.5159 343.025 93.5811 351.775C96.6462 360.524 106.026 371.597 108.071 371.318C110.116 371.038 138.817 341.724 152.933 337.073C167.05 332.422 179.004 326.961 184.387 306.955C184.387 306.955 186.243 306.397 185.407 311.048C184.571 315.699 176.306 332.545 169.061 336.359C169.061 336.359 180.302 337.475 184.944 334.404C189.587 331.333 203.798 302.578 203.798 302.578L205.932 303.136C205.932 303.136 189.587 336.174 187.447 337.754C185.307 339.335 224.228 347.342 249.123 305.09L251.753 306.486C251.753 306.486 237.821 333.751 209.583 340.92C209.583 340.92 228.347 347.157 264.103 306.397H267.263C267.263 306.397 249.056 327.615 243.762 330.686C243.762 330.686 265.123 323.148 274.876 306.118L280.265 308.446C280.265 308.446 239.487 353.054 194.536 343.187C149.584 333.321 120.042 372.965 114.842 380.598C109.642 388.23 95.5205 415.59 72.3034 424.708C64.5013 431.967 66.7305 432.709 66.7305 432.709L68.029 433.826L60.0429 436.992L57.6298 437.55L0.250427 485.011V445.647V445.636Z" fill="#B15341"/><path d="M65.5546 173.635C71.0997 178.99 76.6392 184.345 82.1844 189.699C76.2213 190.559 70.2638 191.419 64.401 192.262C64.8691 193.122 65.7719 194.78 67.3658 197.717H33.8109C33.8444 198.918 33.8834 200.113 33.9168 201.313C53.1101 200.057 72.2979 198.801 91.4912 197.544C97.7552 200.509 104.025 203.474 110.289 206.433C112.368 210.515 114.452 214.591 115.717 217.076C113.343 217.701 106.566 219.482 99.7894 221.258C100.207 222.453 100.625 223.642 101.038 224.837C98.0339 225.144 95.0301 225.451 80.6295 226.925C120.142 234.178 144.997 228.299 184.699 218.723C193.204 225.094 201.702 231.47 210.207 237.841C196.046 231.973 188.684 234.887 188.115 246.585C191.576 247.975 195.037 249.366 198.504 250.756C189.057 252.99 179.611 255.217 165.707 258.501C171.932 259.461 173.531 259.707 175.649 260.03C170.237 263.034 165.445 265.698 159.075 269.232C200.716 265.14 241.193 261.164 281.663 257.183C281.881 259.065 282.104 260.946 282.321 262.828C261.099 264.838 239.883 266.854 216.488 269.07C253.754 272.058 288.095 274.81 322.435 277.563C326.955 280.534 331.475 283.51 335.994 286.48C335.827 290.439 335.66 294.392 335.493 298.351C328.393 300.188 321.293 302.019 314.199 303.856C313.864 303.901 313.53 303.907 313.195 303.873C308.269 305.766 303.342 307.653 298.41 309.546C297.452 309.903 296.499 310.261 295.546 310.612C293.2 310.585 290.853 310.557 288.513 310.529C283.954 310.518 279.395 310.512 274.831 310.501C271.732 310.652 268.634 310.808 265.535 310.959C264.304 310.786 263.066 310.612 261.835 310.439C258.14 310.277 254.439 310.116 250.745 309.954C238.729 309.658 226.714 309.356 214.699 309.06C214.242 309.049 213.785 309.038 213.328 309.027C213.149 308.323 212.971 307.614 212.798 306.911C212.207 308.038 211.622 309.172 211.032 310.3L211.071 310.255C210.229 310.64 209.388 311.026 208.54 311.411C203.92 313.159 199.295 314.901 194.675 316.648C194.168 316.163 193.655 315.671 193.148 315.185C191.454 315.219 189.76 315.252 188.065 315.286C187.664 315.303 187.263 315.347 186.867 315.42C183.451 315.035 180.035 314.649 176.618 314.264C150.788 319.34 124.957 324.415 99.1262 329.491L94.8183 329.519C87.3003 326.459 79.7768 323.405 72.2589 320.345C70.7263 319.932 69.1937 319.518 67.6667 319.105C58.5326 318.279 49.3985 317.452 40.2644 316.632C39.4452 316.995 38.626 317.363 37.8067 317.726C31.3477 319.446 24.883 321.16 18.4239 322.88C17.5768 322.958 16.7353 323.036 15.8882 323.114C10.4378 322.662 4.9819 322.21 -0.468471 321.752C-0.468471 296.793 -0.468471 271.829 -0.468471 246.87C0.668417 245.647 1.8053 244.419 2.94219 243.196C1.8053 242.303 0.668417 241.415 -0.468471 240.521C-0.468471 220.638 -0.468471 200.755 -0.468471 180.866C14.5451 183.552 29.5532 186.237 44.5668 188.923C44.6782 188.186 44.7841 187.455 44.8956 186.718C33.0418 183.032 21.1937 179.353 5.23269 174.395C26.4657 177.767 43.4745 180.47 64.6908 183.842C59.5246 177.84 57.9196 175.975 54.8378 172.39C59.6695 172.943 62.6121 173.278 65.5546 173.618V173.635ZM53.0711 236.719C28.6002 224.502 18.4128 235.591 -7 247.25C22.7207 244.971 91.7476 258.981 111.125 245.239C96.9806 234.82 69.3052 236.295 53.0488 236.741L53.0711 236.713V236.719Z" fill="#1B3833"/><path d="M65.5546 173.635C62.6121 173.3 59.664 172.96 54.8378 172.407C57.9196 175.991 59.5246 177.856 64.6908 183.859C43.4745 180.486 26.4602 177.784 5.23271 174.411C21.1937 179.37 33.0419 183.055 44.8956 186.734C44.7841 187.471 44.6782 188.203 44.5668 188.94C29.5532 186.254 14.5452 183.568 -0.468445 180.883C-0.468445 166.924 -0.468445 152.959 -0.468445 139C17.0641 141.2 34.5912 143.4 55.3059 146.002C50.9701 148.129 48.9081 149.14 48.3174 149.43C57.2397 156.907 65.3818 163.73 76.3216 172.898C69.8458 173.345 67.7002 173.49 65.5602 173.635H65.5546ZM12.5723 161.798C12.4609 162.401 12.3494 163.01 12.2379 163.613C19.3881 164.964 26.5438 166.321 33.6939 167.672C33.8109 167.024 33.9335 166.382 34.0506 165.734C26.8893 164.422 19.7336 163.11 12.5723 161.798Z" fill="#7DB22A"/><path d="M299.196 253.481C307.021 257.892 314.851 262.303 321.527 266.066C323.706 269.629 325.395 272.387 327.312 275.525C326.147 276.016 324.291 276.793 322.441 277.569C288.1 274.816 253.76 272.063 216.493 269.076C239.888 266.859 261.11 264.844 282.327 262.833C282.109 260.952 281.886 259.07 281.669 257.188C241.198 261.164 200.722 265.145 159.08 269.238C165.445 265.703 170.243 263.04 175.654 260.036C173.531 259.707 171.937 259.461 165.712 258.506C179.617 255.223 189.063 252.99 198.509 250.762C195.048 249.371 191.587 247.981 188.121 246.591C188.69 234.887 196.051 231.973 210.212 237.847C223.549 239.103 236.885 240.365 250.226 241.621C255.928 243.38 261.623 245.139 267.324 246.898C270.239 246.462 273.148 246.027 276.063 245.586C283.313 248.484 290.564 251.381 297.814 254.285C298.277 254.023 298.739 253.754 299.202 253.486L299.196 253.481ZM200.042 243.944C200.092 244.664 200.142 245.385 200.198 246.111C203.001 245.815 205.799 245.513 220.489 243.944H200.042ZM180.781 264.352C180.77 264.899 180.759 265.447 180.748 265.994L185.569 264.631C185.468 264.241 185.368 263.85 185.273 263.459C183.774 263.755 182.281 264.051 180.781 264.352Z" fill="#7DB22A"/><path d="M184.705 218.723C144.997 228.299 120.142 234.178 80.6351 226.925C95.0356 225.451 98.0395 225.144 101.043 224.837C100.625 223.642 100.207 222.453 99.795 221.258C106.572 219.477 113.348 217.696 115.723 217.076C114.457 214.597 112.379 210.515 110.294 206.433C129.137 206.4 148.068 205.35 166.777 206.902C173.041 207.422 178.747 214.591 184.71 218.723H184.705ZM136.409 213.396C136.382 213.742 136.359 214.094 136.331 214.44H156.35C156.333 214.094 156.316 213.742 156.299 213.396H136.404H136.409Z" fill="#7DB22A"/><path d="M91.4857 197.539C72.2923 198.795 53.1046 200.051 33.9112 201.308C33.8778 200.107 33.8388 198.912 33.8054 197.712H67.3602C65.7664 194.78 64.8636 193.122 64.3954 192.257C70.2582 191.413 76.2213 190.554 82.1788 189.694C85.2774 192.307 88.3815 194.92 91.4801 197.533L91.4857 197.539Z" fill="#7DB22A"/><path d="M53.0488 236.747C69.3108 236.3 96.9806 234.826 111.125 245.245C91.7476 258.981 22.7207 244.971 -7 247.255C18.4128 235.597 28.6002 224.502 53.0711 236.724C53.79 237.115 54.5089 237.506 53.138 236.764C54.6929 236.953 53.8736 236.853 53.0488 236.752V236.747Z" fill="#7DB22A"/><path d="M12.5723 161.798C19.7336 163.11 26.8893 164.422 34.0505 165.734C33.9335 166.382 33.8109 167.024 33.6939 167.672C26.5437 166.321 19.388 164.964 12.2379 163.613C12.3494 163.01 12.4608 162.401 12.5723 161.798Z" fill="#1B3833"/><path d="M200.042 243.944H220.489C205.799 245.513 203.001 245.809 200.198 246.111C200.148 245.39 200.097 244.67 200.042 243.944Z" fill="#1B3833"/><path d="M180.781 264.352C182.281 264.056 183.774 263.76 185.273 263.459C185.374 263.85 185.474 264.241 185.569 264.631L180.748 265.994C180.759 265.447 180.77 264.899 180.781 264.352Z" fill="#1B3833"/><path d="M136.409 213.396H156.305C156.322 213.742 156.338 214.094 156.355 214.44H136.337C136.365 214.094 136.387 213.742 136.415 213.396H136.409Z" fill="#1B3833"/></g><g clip-path="url(#clip4_5510_6828)"><path d="M729.818 637.654C729.626 638.448 729.381 638.932 729.381 638.932L728.98 649.253L479.068 667.394L253.051 690.354L-3.09454 694.673V681.222L152.441 684.223L260.597 681.222L544.787 657.946L700.166 642.935L729.818 637.654Z" fill="#65A8CB"/><path d="M730.051 635.74C730.051 636.483 729.947 637.136 729.818 637.654L700.166 642.935L544.787 657.946L260.597 681.222L152.441 684.223L-3.09454 681.222V514H-2.98222L276.715 517.187C291.597 517.356 306.448 519.033 321.154 522.203C332.045 524.551 343.798 526.984 351.424 528.622C356.414 529.686 359.639 530.412 359.703 530.548C359.744 530.632 361.457 530.885 361.477 531.06C361.657 532.755 362.026 535.367 360.807 535.474L233.207 536.848L231.462 536.865C231.462 536.865 269.258 539.32 313.319 542.247C314.017 542.292 314.719 542.343 315.421 542.388L317.856 542.551L321.563 542.799L323.621 542.94C380.378 546.729 443.274 551.036 448.38 551.847C452.408 552.489 471.125 554.809 491.287 557.264C518.444 560.563 548.221 564.11 548.221 564.11L620.563 572.865L639.148 575.118V577.871L637.764 578.687V586.254L577.348 592.459L573.782 592.825C573.782 592.825 673.518 608.286 677.425 612.554C677.429 612.554 677.429 612.554 677.433 612.565C677.457 612.593 677.481 612.621 677.501 612.655L678.436 618.285C678.436 618.285 730.051 633.865 730.051 635.74Z" fill="#FEFEFD"/><path d="M441.172 659.325H414.427L397.491 662.58L352.964 657.135L347.617 662.58L315.124 665.395L313.785 670.085C313.785 670.085 250.003 668.959 240.111 670.085C230.214 671.211 176.461 669.899 171.78 668.396C167.103 666.892 163.492 666.521 158.277 667.647C153.063 668.773 101.179 672.151 87.8085 669.708C74.4384 667.27 63.07 664.077 47.2931 665.958C31.5161 667.833 -2.98224 667.647 -2.98224 667.647V663.143C-2.98224 663.143 31.5161 663.328 47.2931 661.454C63.07 659.573 74.4384 662.765 87.8085 665.203C101.179 667.647 153.063 664.269 158.277 663.143C163.492 662.017 167.103 662.388 171.78 663.891C176.461 665.395 230.214 666.707 240.111 665.581C250.003 664.454 313.785 665.581 313.785 665.581L315.124 660.89L347.617 658.075L352.964 652.631L397.491 658.075L414.427 654.821H439.579L441.172 659.325Z" fill="#1B3833"/><path d="M315.746 589.165L315.534 593.67H274.296L274.116 595.449L252.634 597.797L247.078 599.03L245.546 599.108C245.546 599.108 215.593 601.361 181.496 599.671C147.398 597.982 111.965 595.359 109.558 597.048C109.129 597.352 108.556 597.633 107.886 597.881L87.8566 595.73C87.8566 595.73 87.5879 596.535 87.0905 597.341L82.4171 597.402L56.0339 594.233L57.8391 593.197L96.056 592.729C100.336 595.359 107.156 594.233 109.563 592.543C111.969 590.854 147.402 593.478 181.5 595.167C215.597 596.856 245.55 594.604 245.55 594.604L273.899 593.106L274.3 589.165H315.75H315.746Z" fill="#1B3833"/><path d="M87.8527 595.73L107.882 597.881C104.789 599.018 99.5661 599.39 96.052 597.234L87.0865 597.341C87.5839 596.535 87.8527 595.73 87.8527 595.73Z" fill="#71BC55"/><path d="M273.895 597.611L247.078 599.03L252.634 597.797L274.116 595.449L273.895 597.611Z" fill="#71BC55"/><path d="M419.466 610.932L419.197 615.999L379.528 616.94L305.585 615.251L256.646 612.998L235.919 609.243L234.848 606.242L239.064 605.307L256.646 608.494L305.585 610.746L379.528 612.435L419.197 611.495L419.233 610.831L419.466 610.932Z" fill="#1B3833"/><path d="M620.563 572.865C611.269 573.468 539.075 577.888 522.066 571.801C519.94 570.444 523.338 569.482 528.581 568.8C543.728 571.159 572.871 570.591 594.505 569.712L620.563 572.865Z" fill="#1B3833"/><path d="M594.505 569.712C572.871 570.591 543.728 571.159 528.581 568.8C537.827 567.607 552.81 567.297 553.267 567.297C552.998 567.291 532.725 567.173 514.067 566.998C526.146 564.245 531.264 563.795 541.04 563.254C545.537 563.789 548.221 564.11 548.221 564.11L594.505 569.712Z" fill="#7DB22A"/><path d="M596.326 608.337L582.061 610.06C577.203 610.33 572.574 610.803 568.226 611.411L468.67 606.338L464.57 609.091L452.56 610.183L431.901 606.901L429.025 603.708L414.548 604.266L407.095 600.989V600.049L429.025 599.204L431.901 602.397L452.56 605.679L464.57 604.587L468.67 601.834L596.326 608.337Z" fill="#1B3833"/><path d="M669.643 628.077L653.376 632.108H574.215L529.467 626.354C529.467 626.354 532.608 624.884 538.224 622.975L574.215 627.604H653.376L662.029 625.458L669.643 628.077Z" fill="#1B3833"/><path d="M630.331 614.564L662.029 625.459L653.377 627.604H574.215L538.224 622.976C547.314 619.879 562.883 615.628 582.061 614.564L596.326 612.841L568.226 611.411C572.574 610.803 577.203 610.33 582.061 610.06L596.326 608.337L468.67 601.834L464.57 604.587L452.56 605.679L431.901 602.397L429.025 599.204L407.095 600.049V600.989L414.548 604.266L407.095 604.553V605.493L419.233 610.831L419.197 611.495L379.528 612.436L305.585 610.746L256.646 608.494L239.064 605.307L252.634 602.301L276.703 599.671L315.746 593.67H286.447L315.746 589.165H274.296L273.895 593.106L245.546 594.604C245.546 594.604 215.986 596.828 182.162 595.201H182.137C181.925 595.19 181.708 595.178 181.496 595.167C147.398 593.478 111.965 590.854 109.559 592.543C107.152 594.233 100.332 595.359 96.0521 592.729L57.8351 593.197L56.03 594.233L82.4132 597.402L72.16 597.526L58.2283 597.695H57.8391L56.034 598.737L82.5736 601.924C82.5736 601.924 83.7129 603.804 85.3175 603.427C86.3925 603.174 87.1667 601.828 87.5599 600.966C87.6922 600.679 87.7805 600.443 87.8246 600.325C87.8447 600.268 87.8567 600.235 87.8567 600.235L252.205 617.897L253.441 618.032L276.169 626.044L407.745 648.566L438.633 652.13L439.583 654.821H414.432L397.495 658.075L352.968 652.631L347.621 658.075L315.129 660.89L313.789 665.58C313.789 665.58 250.007 664.454 240.115 665.58C230.218 666.707 176.465 665.395 171.784 663.891C167.107 662.388 163.496 662.016 158.281 663.143C153.067 664.269 101.183 667.647 87.8126 665.203C74.4425 662.765 63.0741 659.573 47.2971 661.453C31.5201 663.328 -2.97821 663.143 -2.97821 663.143V514L101.403 515.188L276.719 517.187C291.601 517.356 306.452 519.033 321.158 522.203C323.829 522.778 326.549 523.358 329.249 523.932L248.892 523.256L251.768 524.287L249.229 527.766H248.892L249.16 527.856L226.163 526.167C226.163 526.167 226.363 523.161 222.216 523.161C218.068 523.161 218.541 525.604 218.541 525.604L216.556 527.761L203.803 528.937L194.914 529.759L109.518 528.509L233.211 536.848L313.323 542.247L315.425 542.388L317.86 542.551L321.567 542.799L322.654 542.872L323.625 542.94C380.383 546.729 443.278 551.036 448.384 551.847C452.412 552.489 471.129 554.809 491.291 557.264C507.477 559.229 524.59 561.284 535.777 562.629C524.505 562.522 508.716 562.376 491.238 562.218C490.496 562.207 489.746 562.201 489 562.196C486.156 562.168 483.272 562.14 480.359 562.117C459.299 561.92 436.723 561.712 417.119 561.531C387.138 561.256 364.112 561.042 364.112 561.042C364.112 561.042 380.784 562.911 406.445 565.934C381.843 565.709 364.112 565.546 364.112 565.546C364.112 565.546 485.61 579.16 577.352 592.459C630.531 600.167 673.715 607.774 677.429 612.554C677.433 612.554 677.433 612.554 677.437 612.565C677.461 612.593 677.485 612.621 677.505 612.655L677.682 613.725L678.44 618.285L647.243 615.87L630.335 614.564H630.331Z" fill="#2A6036"/><path d="M630.331 614.564L677.425 612.554L678.436 618.285L630.331 614.564Z" fill="#4A9C3B"/><path d="M521.681 566.998C490.107 566.711 441.356 566.261 406.441 565.934C398.346 564.983 370.165 565.687 364.108 565.546C360.795 565.467 359.186 565.304 356.587 565.005C348.881 564.121 364.108 561.041 364.108 561.041C364.108 561.041 488.916 562.19 535.773 562.629C537.723 562.86 539.492 563.068 541.04 563.254C531.264 563.795 527.975 566.069 521.681 566.998Z" fill="#1B3833"/><path d="M249.225 527.766H243.681L248.888 523.256L329.245 523.932C337.56 525.694 345.667 527.383 351.424 528.622L249.225 527.766Z" fill="#1B3833"/><path d="M254.427 527.693L249.156 532.361L226.159 530.671C226.159 530.671 226.359 527.665 222.212 527.665C218.064 527.665 218.537 530.108 218.537 530.108L194.91 529.759L109.514 528.509L218.537 525.604C218.537 525.604 218.068 523.161 222.212 523.161C226.355 523.161 226.159 526.167 226.159 526.167L249.213 527.659L254.427 527.693Z" fill="#1B3833"/><path d="M526.499 570.292C515.211 567.736 503.919 565.18 492.626 562.624C492.161 562.489 491.696 562.353 491.234 562.218C490.512 562.004 489.79 561.796 489.068 561.582C489.064 561.796 489.04 561.999 488.996 562.196C488.892 562.719 488.659 563.198 488.302 563.626C485.955 563.496 483.605 563.373 481.258 563.249C480.821 562.967 480.516 562.59 480.355 562.117C480.315 562.01 480.287 561.892 480.263 561.774C468.73 560.281 457.197 558.789 445.669 557.297C404.664 552.489 363.655 547.686 322.65 542.872L321.563 542.799L317.856 542.551L315.421 542.388L313.319 542.247L233.207 536.848L109.514 528.509L194.91 529.759L203.799 528.937C185.038 526.741 166.272 524.54 147.511 522.339L147.342 522.282C133.078 520.818 118.817 519.36 104.56 517.902C103.505 516.995 102.454 516.094 101.399 515.188L-2.98224 514V540.62C76.7972 550.609 156.577 560.597 236.36 570.579C243.897 571.294 251.435 572.01 258.972 572.719C265.25 573.338 271.524 573.958 277.798 574.577C284.297 574.633 290.799 574.69 297.298 574.746C270.445 571.081 243.581 567.522 216.768 563.592C213.98 563.181 211.513 560.552 208.894 558.953H209.054C209.014 558.936 208.974 558.925 208.934 558.908C225.746 560.45 242.554 561.993 259.362 563.536C259.542 562.359 259.723 561.177 259.903 560C234.856 555.451 209.808 550.896 164.218 542.608C244.174 551.988 303.439 558.936 362.704 565.889C362.913 564.397 363.121 562.905 363.326 561.413C337.657 557.967 311.988 554.522 276.534 549.758H338.78L338.812 549.787C364.906 553.7 391.001 557.613 417.115 561.531C436.362 564.42 455.617 567.308 474.888 570.208C455.537 570.236 436.097 570.236 416.654 570.236C453.274 570.258 489.887 570.275 526.499 570.292ZM195.175 559.307C195.491 559.42 195.808 559.538 196.121 559.651C196.27 560.445 195.909 560.783 195.042 560.664C195.086 560.214 195.13 559.758 195.175 559.307ZM143.636 549.618C104.649 543.655 65.6614 537.698 26.6743 531.741C25.9081 531.651 25.1379 531.567 24.3717 531.477C24.0348 531.432 23.7018 531.392 23.3689 531.347C23.7219 531.364 24.0789 531.381 24.4359 531.398C25.182 531.51 25.9282 531.623 26.6743 531.741C65.862 536.223 105.042 540.705 144.229 545.187C144.033 546.662 143.832 548.142 143.636 549.618Z" fill="#7DB22A"/><path d="M252.201 617.897C251.92 620.323 251.644 622.745 251.367 625.16C249.566 625.976 247.76 626.798 245.959 627.615C245.851 625.841 245.739 624.068 245.63 622.288C244.856 623.195 244.082 624.096 243.312 624.997C242.429 624.873 241.551 624.749 240.668 624.631C193.759 617.249 146.853 609.868 99.9431 602.487C103.497 604.457 107.304 606.563 120.273 613.753C72.0677 607.526 34.5407 602.678 -2.98224 597.825V563.502C58.7216 574.064 120.434 584.627 182.137 595.201C181.925 595.19 181.708 595.178 181.496 595.167C147.398 593.478 111.965 590.854 109.559 592.543C107.152 594.232 100.332 595.358 96.052 592.729L57.8351 593.196L56.03 594.232L82.4132 597.402L72.1599 597.526C62.0712 595.724 51.9824 593.923 41.8937 592.115L41.3642 595.815C46.9842 596.44 52.6002 597.07 58.2202 597.695H58.2282C68.0041 598.787 77.784 599.88 87.5598 600.966C90.9816 601.349 94.3993 601.732 97.8211 602.115C94.4876 601.518 91.1581 600.921 87.8246 600.324C87.8446 600.268 87.8567 600.234 87.8567 600.234L252.205 617.897H252.201Z" fill="#7DB22A"/><path d="M-5 652.631C-5 646.95 -5 641.269 -5 635.593C10.5644 633.138 26.1327 630.689 41.6971 628.234C50.3899 627.592 59.0786 626.956 67.7714 626.314C85.7507 625.504 103.726 624.687 121.705 623.876C123.406 624.135 125.107 624.389 126.812 624.648C127.786 626.128 128.757 627.615 129.732 629.096L130.478 629.315L130.98 628.944C131.473 628.893 131.742 628.713 131.786 628.409C140.322 629.304 148.859 630.199 157.391 631.094C189.278 632.75 221.165 634.405 253.052 636.055C252.947 637.08 252.839 638.099 252.735 639.123C238.763 638.121 224.787 637.119 196.061 635.058C218.497 637.941 226.235 638.932 244.15 641.235C170.869 642.4 108.094 643.402 45.3234 644.399C45.3796 644.771 45.4358 645.142 45.4919 645.514C86.3764 646.319 127.257 647.118 168.142 647.924C168.162 648.56 168.186 649.196 168.206 649.832C131.75 649.117 95.2939 648.402 55.2638 647.614C62.6368 650.733 66.219 652.248 69.8012 653.762C44.8661 653.379 19.9311 653.002 -5 652.631Z" fill="#7DB22A"/><path d="M363.863 598.247C363.875 598.714 363.891 599.182 363.903 599.649C374.305 598.478 384.711 597.307 395.112 596.141C395.116 595.668 395.12 595.201 395.124 594.734C384.703 595.905 374.285 597.076 363.863 598.247ZM329.582 609.305C363.823 605.049 397.864 601.4 432.03 600.454C401.182 595.471 357.606 603.799 329.582 609.305ZM388.746 670C388.766 670.017 388.782 670.029 388.798 670.04C388.782 670.029 388.766 670.017 388.75 670H388.746ZM388.638 669.95C388.638 669.95 388.662 669.978 388.674 669.989C388.698 669.995 388.718 669.995 388.742 670C388.726 669.983 388.706 669.967 388.69 669.955C388.674 669.955 388.654 669.95 388.638 669.95ZM305.028 612.43C305.028 612.43 305.036 612.447 305.04 612.452C305.244 612.802 305.449 613.145 305.657 613.494C310.206 613.151 318.731 611.439 329.582 609.305C321.41 610.324 313.231 611.371 305.032 612.43H305.028ZM298.914 701.361C298.922 701.44 298.934 701.553 298.946 701.694C298.934 701.542 298.922 701.435 298.914 701.361ZM277.505 650.542C277.517 650.441 277.513 650.446 277.505 650.542Z" fill="#1B3833"/></g><defs><radialGradient id="paint0_radial_5510_6828" cx="0" cy="0" r="1" gradientUnits="userSpaceOnUse" gradientTransform="translate(382 410) rotate(90) scale(181)"><stop offset="0.785" stop-color="#97D8FF"/><stop offset="1" stop-color="white"/></radialGradient><linearGradient id="paint1_linear_5510_6828" x1="78.7142" y1="364.505" x2="78.7142" y2="519.943" gradientUnits="userSpaceOnUse"><stop stop-color="#BEE0FF"/><stop offset="1" stop-color="white"/></linearGradient><linearGradient id="paint2_linear_5510_6828" x1="117.652" y1="343.081" x2="117.652" y2="458.034" gradientUnits="userSpaceOnUse"><stop stop-color="#BEE0FF"/><stop offset="1" stop-color="white"/></linearGradient><linearGradient id="paint3_linear_5510_6828" x1="205.156" y1="361.646" x2="205.156" y2="459.485" gradientUnits="userSpaceOnUse"><stop stop-color="#BEE0FF"/><stop offset="1" stop-color="white"/></linearGradient><clipPath id="clip0_5510_6828"><rect width="115" height="146.944" fill="white" transform="translate(31 0.055542)"/></clipPath><clipPath id="clip1_5510_6828"><rect width="175" height="183" fill="white" transform="matrix(-1 0 0 1 251 332)"/></clipPath><clipPath id="clip2_5510_6828"><rect width="224.592" height="124.98" fill="white" transform="matrix(-1 0 0 1 279.592 402)"/></clipPath><clipPath id="clip3_5510_6828"><rect width="343" height="346" fill="white" transform="translate(-7 139)"/></clipPath><clipPath id="clip4_5510_6828"><rect width="741" height="187.694" fill="white" transform="translate(-5 514)"/></clipPath></defs></svg>